<svg xmlns="http://www.w3.org/2000/svg" width="71.0" height="70.0" viewBox="0 0 71.0 70.0">
  <path d="M0,0h71v70h-71z" fill="#eff6fc"/>
  <path d="M15.5332,67.8035C15.5332,61.705 22.6638,61.9719 28.7852,61.9719H43.0068C49.5862,61.9719 56.0564,61.705 56.0564,67.8035V79.9998C56.0564,82.7613 53.8178,84.9999 51.0564,84.9999H20.5332C17.7718,84.9999 15.5332,82.7613 15.5332,79.9999V67.8035Z" fill="#c4e3eb"/>
  <path d="M29.2158,53.897h13.9065v8.5233h-13.9065z" fill="#f8bc91"/>
  <path d="M43.1223,58.1585C37.3653,61.2335 35.1223,61.3083 29.2158,58.1585V54.6445H43.1223V58.1585Z" fill="#000000"/>
  <path d="M49.2003,13.1406C47.695,12.8234 46.3822,13.7387 45.9195,14.2039C44.153,16.22 41.7807,20.6109 46.4243,22.0464C51.0678,23.482 51.2192,34.674 51.4085,41.1872C52.0394,37.8642 53.3643,29.8888 55.3832,28.6261C55.3832,23.5751 54.8785,14.337 49.2003,13.1406Z" fill="#8a614b"/>
  <path d="M49.5509,14.4193C49.4074,1.3973 28.5276,5.521 20.635,8.5595L22.4116,11.2057C15.753,15.0834 16.1289,24.8257 16.6072,28.9253C17.272,29.0748 18.0107,30.1963 18.5277,31.4673C19.3403,34.6075 20.1327,41.1869 20.1327,41.1869L21.1372,36.7738C20.0609,28.5989 20.4335,26.7725 24.7966,23.1731C28.7429,19.9175 49.6888,26.9374 49.5509,14.4193Z" fill="#7c5443"/>
  <path d="M50.3479,11.5787C48.0716,4.7157 35.9092,2.4236 19.8849,8.5828L22.2623,11.2056C18.728,13.9727 18.3623,18.5832 18.9114,21.1208C19.3857,20.5098 21.4873,19.2437 26.0999,19.0678C31.8657,18.8478 41.4699,22.2966 46.2622,19.8037C50.096,17.8093 51.3897,14.7196 50.3479,11.5787Z" fill="#b57e60"/>
  <path d="M17.6324,35.4742C18.9247,34.6988 19.8939,35.7973 20.217,36.4434C21.7247,37.6281 24.1585,40.3206 21.8324,41.6129C19.5063,42.9052 17.6324,39.9975 16.9862,38.3821C16.6632,37.7359 16.3401,36.2496 17.6324,35.4742Z" fill="#dd996d"/>
  <path d="M54.4233,35.4727C53.131,34.6974 52.1618,35.7958 51.8387,36.442C50.331,37.6267 47.8971,40.3191 50.2233,41.6114C52.5494,42.9037 54.4233,39.996 55.0694,38.3806C55.3925,37.7344 55.7156,36.2481 54.4233,35.4727Z" fill="#dd996d"/>
  <path d="M47.0097,20.1777C48.0814,20.7509 50.1797,22.1366 50.8975,25.7852C51.7947,30.3459 52.019,32.2151 52.019,35.8786C52.019,36.9191 52.0612,37.9837 52.1028,39.0331C52.2077,41.6784 52.3088,44.2267 51.7199,46.0468C50.8975,48.5888 49.5517,49.7103 47.7573,51.2056C45.9629,52.7009 42.9723,55.0934 41.477,55.542C40.2892,55.8984 37.2586,56.0844 36.0448,56.1358V56.138C34.8485,56.0882 31.6973,55.9011 30.5011,55.5422C29.0057,55.0936 26.0151,52.7011 24.2207,51.2058C22.4263,49.7105 21.0805,48.589 20.2581,46.0469C19.6693,44.2269 19.7703,41.6786 19.8752,39.0332C19.9168,37.9839 19.959,36.9193 19.959,35.8788C19.959,32.2152 19.8752,28.7757 20.7668,26.8318C22.55,22.944 25.7761,21.8973 27.7948,21.4487C29.963,20.9669 36.1498,22.3489 39.0845,22.1964C44.7668,21.9012 47.0097,20.1777 47.0097,20.1777Z" fill="#f8bc91"/>
  <path d="M34.4482,43.5791L35.9016,39.164L35.9485,39.0552C36.0061,38.9213 36.2006,38.9363 36.237,39.0774C36.5724,40.0585 37.2656,42.0901 37.355,42.3671C37.4668,42.7134 37.4668,42.6268 37.355,42.8865C37.2656,43.0943 36.9451,43.1462 36.796,43.1462L34.4482,43.5791Z" fill="#bd9483"/>
  <path d="M28.2095,28.7781C28.5628,28.7335 29.2922,29.2489 29.9985,29.8403C30.6796,30.4106 30.2701,31.2272 29.4257,30.951C28.7146,30.7184 28.1057,30.495 27.8695,30.495C27.5578,30.495 26.3374,30.9691 26.2388,30.7699C26.0714,30.4315 27.4211,28.8777 28.2095,28.7781Z" fill="#492c2c"/>
  <path d="M43.4956,28.6261C43.129,28.5798 42.3324,29.1694 41.5751,29.8235C40.9029,30.4042 41.3193,31.2275 42.1636,30.9513C42.8747,30.7187 43.4837,30.4952 43.7199,30.4952C44.0316,30.4952 45.4159,30.6945 45.5145,30.4952C45.682,30.1568 44.284,28.7257 43.4956,28.6261Z" fill="#492c2c"/>
  <path d="M26.9716,36.4007a2.0561,2.243 0,1 0,4.1121 0a2.0561,2.243 0,1 0,-4.1121 0z" fill="#6e5145"/>
  <path d="M29.2148,35.7479a0.6542,0.8411 0,1 0,1.3084 0a0.6542,0.8411 0,1 0,-1.3084 0z" fill="#ffffff"/>
  <path d="M40.8037,36.4012a2.0561,2.243 0,1 0,4.1121 0a2.0561,2.243 0,1 0,-4.1121 0z" fill="#6e5145"/>
  <path d="M43.0459,35.7474a0.6542,0.8411 0,1 0,1.3084 0a0.6542,0.8411 0,1 0,-1.3084 0z" fill="#ffffff"/>
  <path d="M29.8883,47.3174C25.163,49.2314 21.2403,46.3704 19.9443,44.7754C19.4973,49.6178 22.3909,51.7879 25.3703,54.0224L25.4023,54.0464C27.7071,55.7749 33.4272,57.8844 36.0938,58.6071C39.8321,57.8594 42.2246,56.9622 46.8601,54.0464C50.5978,51.6953 51.9441,47.0931 52.0189,44.9249C49.751,46.5698 44.1985,49.3959 40.4303,47.5417C35.72,45.224 35.7948,44.9249 29.8883,47.3174Z" fill="#8a614b"/>
  <path d="M39.2338,48.2145C37.9086,47.722 34.2718,48.2144 32.5049,48.2144C32.7573,49.9995 33.5694,50.3828 36.0936,50.3828C38.6179,50.3828 39.1076,49.5071 39.2338,48.2145Z" fill="#e47a7a"/>
  <path d="M35.7947,45.3235C35.165,44.8649 34.2858,44.4761 33.1741,44.4761C31.8292,44.4761 30.9868,44.9396 30.2257,45.3584C29.5491,45.7307 28.9368,46.0676 28.0928,46.012C26.658,45.9175 26.2495,45.7363 26.2246,45.6576C26.399,46.6815 27.6327,48.6355 30.1851,49.0839C32.3305,49.4608 34.5367,49.2365 35.7947,48.4111C37.0526,49.2365 39.2588,49.4608 41.4042,49.0839C43.9566,48.6355 45.1903,46.6815 45.3647,45.6576C45.3398,45.7363 44.9313,45.9175 43.4965,46.012C42.6525,46.0676 42.0402,45.7307 41.3636,45.3584C40.6025,44.9396 39.7601,44.4761 38.4152,44.4761C37.3035,44.4761 36.4243,44.8649 35.7947,45.3235Z" fill="#7c5443"/>
  <path d="M34.1504,68.103h4.1869v16.8971h-4.1869z" fill="#bc2a37"/>
  <path d="M33.4745,66.5803C33.1359,65.3106 34.0929,64.0649 35.4069,64.0649H37.1206C38.4218,64.0649 39.3765,65.2877 39.0609,66.55L38.9394,67.036C38.7168,67.9263 37.9169,68.5509 36.9991,68.5509H35.5365C34.6304,68.5509 33.8375,67.9417 33.6041,67.0662L33.4745,66.5803Z" fill="#d73a48"/>
  <path d="M28.7945,58.4945L35.6603,61.5379C36.2087,61.781 36.4212,62.4488 36.1141,62.9641L33.2714,67.7334C32.9647,68.248 32.2774,68.3793 31.8026,68.0139L24.9383,62.7314C24.4414,62.349 24.4149,61.6091 24.8831,61.1921L27.7242,58.6619C28.0172,58.401 28.4358,58.3355 28.7945,58.4945Z" fill="#d1f5ff"/>
  <path d="M44.0414,58.4717L37.1251,61.5374C36.5767,61.7805 36.3643,62.4483 36.6714,62.9636L39.5049,67.7176C39.8149,68.2376 40.5121,68.3651 40.9861,67.9885L48.0186,62.3998C48.5301,61.9933 48.5208,61.2135 47.9997,60.8194L45.0499,58.5883C44.76,58.369 44.3738,58.3243 44.0414,58.4717Z" fill="#d1f5ff"/>
</svg>